<?xml version="1.0" encoding="UTF-8"?>
<!-- Created with Inkscape (http://www.inkscape.org/) -->
<svg width="118.23" height="118.25" version="1.1" viewBox="0 0 31.283 31.287" xmlns="http://www.w3.org/2000/svg">
 <g transform="translate(-.010814 -.004256)">
  <g shape-rendering="crispEdges" stroke-width=".22813">
   <path d="m9.1094 20.489 0.82112 2.3774 2.4634-1.7486z" fill="#6dc073"/>
   <path d="m9.9305 22.866 3.8407 0.94309-1.3774-2.6917z" fill="#83ca7c"/>
   <path d="m14.301 17.974-3.152-0.70732 1.2449 3.8509z" fill="#72c173"/>
   <path d="m12.394 21.118-1.2449-3.8509-2.0396 3.2222z" fill="#89cd80"/>
   <path d="m5.5336 16.422-0.74165 3.792 4.3175 0.27507z" fill="#a5d98b"/>
   <path d="m9.1094 20.489-4.4234 3.5169 5.2445-1.1396z" fill="#6abe70"/>
   <path d="m17.029 22.139-2.7282-4.1653-1.9071 3.1436z" fill="#60ba6c"/>
   <path d="m13.771 23.809 3.258-1.67-4.6353-1.0217z" fill="#88cd7f"/>
   <path d="m4.7919 20.214-0.10596 3.792 4.4234-3.5169z" fill="#8fd082"/>
   <path d="m9.9305 22.866 1.3774 3.6938 2.4633-2.7507z" fill="#74c477"/>
   <path d="m4.686 24.006 1.0595 1.1003 4.185-2.2398z" fill="#83c97b"/>
   <path d="m5.7455 25.106 5.5624 1.4539-1.3774-3.6938z" fill="#62ba6d"/>
   <path d="m13.771 23.809 4.9532 3.5759-1.6952-5.2459z" fill="#70c173"/>
   <path d="m4.7919 20.214-1.9071 2.1809 1.8012 1.6111z" fill="#6ec073"/>
   <path d="m4.686 24.006-0.69012 1.9071 1.7496-0.80679z" fill="#68bd70"/>
   <path d="m12.5 28.034 0.13244-0.66802-1.3244-0.80555z" fill="#7fc87a"/>
   <path d="m11.308 26.56 1.3244 0.80555 1.139-3.5562z" fill="#74c375"/>
   <path d="m17.029 22.139 0.45029-4.0081-3.1785-0.15718z" fill="#88cd7f"/>
   <path d="m14.301 17.974 0.15893-2.6721-3.311 1.9648z" fill="#89cc7e"/>
   <path d="m8.3413 14.339-2.8077 2.0826 5.6154 0.84485z" fill="#a3d98a"/>
   <path d="m11.149 17.267-5.6154-0.84485 3.5758 4.0671z" fill="#82c97b"/>
   <path d="m4.7919 20.214-3.7658 0.65482 1.8587 1.5261z" fill="#7ec779"/>
   <path d="m22.645 23.141-3.5493-2.1809-2.066 1.1789z" fill="#64bb6d"/>
   <path d="m17.029 22.139 2.066-1.1789-1.6157-2.8293z" fill="#82ca7c"/>
   <path d="m5.5336 16.422-2.7282 1.7683 1.9866 2.0237z" fill="#82ca7d"/>
   <path d="m9.1823 29.769 3.3176-1.7357-1.1919-1.4736z" fill="#65bb6d"/>
   <path d="m12.632 27.366 6.0922 0.01968-4.9532-3.5759z" fill="#5db86b"/>
   <path d="m17.48 18.131-3.0196-2.8293-0.15893 2.6721z" fill="#7bc576"/>
   <path d="m14.46 15.302-6.1186-0.96274 2.8077 2.9275z" fill="#7dc779"/>
   <path d="m5.5336 16.422-4.7148-0.96274 1.9866 2.731z" fill="#8ecf81"/>
   <path d="m2.8054 18.19-1.7792 2.6785 3.7658-0.65482z" fill="#7dc87a"/>
   <path d="m2.8848 22.395 1.111 3.5182 0.69012-1.9071z" fill="#95d284"/>
   <path d="m2.1186 23.27 1.8773 2.6425-1.111-3.5182z" fill="#63bb6e"/>
   <path d="m5.7455 25.106 3.4368 4.6632 2.1256-3.2093z" fill="#63bb6d"/>
   <path d="m6.6941 28.336 2.4882 1.4332-3.4368-4.6632z" fill="#85cc7e"/>
   <path d="m8.3413 14.339-3.311-0.29472 0.50327 2.3774z" fill="#7fc87a"/>
   <path d="m2.8054 18.19-2.541-0.44864 0.76176 3.1272z" fill="#7ec779"/>
   <path d="m17.612 30.509 1.1125-3.124-6.2246 0.64838z" fill="#4aaf61"/>
   <path d="m12.5 28.034 6.2246-0.64838-6.0922-0.01968z" fill="#67bd6f"/>
   <path d="m3.9959 25.913 0.69992 0.74277 1.0497-1.5496z" fill="#66bc6f"/>
   <path d="m14.46 15.302-4.9267-2.8096-1.1919 1.8469z" fill="#66bc6e"/>
   <path d="m8.3413 14.339-1.2979-1.7879-2.0131 1.4932z" fill="#92d082"/>
   <path d="m21.4 26.364 1.2449-3.2222-5.6154-1.002z" fill="#70c275"/>
   <path d="m23.015 17.463-4.291-3.1436-1.2449 3.8116z" fill="#88cd7f"/>
   <path d="m4.6958 26.656 1.9983 1.6805-0.94859-3.23z" fill="#61ba6d"/>
   <path d="m9.1823 29.769 7.408 1.3841-4.0905-3.1199z" fill="#7ac678"/>
   <path d="m9.5332 12.492-2.4898 0.05896 1.2979 1.7879z" fill="#98d485"/>
   <path d="m2.0902 10.763-1.2714 4.6958 4.2115-1.4146z" fill="#92d183"/>
   <path d="m5.0303 14.044-4.2115 1.4146 4.7148 0.96274z" fill="#8dcf81"/>
   <path d="m23.068 19.88-5.5889-1.7486 1.6157 2.8293z" fill="#66bc6f"/>
   <path d="m17.48 18.131 1.2449-3.8116-4.2645 0.98238z" fill="#5fb96b"/>
   <path d="m14.46 15.302-1.4833-4.853-3.4434 2.0433z" fill="#91d182"/>
   <path d="m18.724 27.385 2.6752-1.0217-4.3705-4.2242z" fill="#64bc6e"/>
   <path d="m22.645 23.141 0.42381-3.2615-3.9731 1.0806z" fill="#89cd7f"/>
   <path d="m1.7999 22.668 1.085-0.27323-1.8587-1.5261z" fill="#68bd70"/>
   <path d="m1.7999 22.668 0.31868 0.60248 0.76628-0.8757z" fill="#5bb769"/>
   <path d="m23.068 19.88-0.05296-2.4167-5.5359 0.66802z" fill="#62bb6d"/>
   <path d="m16.59 31.153 1.0216-0.64425-5.1121-2.4756z" fill="#5db86a"/>
   <path d="m18.724 27.385 4.0526 1.2378-1.3774-2.2595z" fill="#72c275"/>
   <path d="m25.134 23.377-0.52976-2.0826-1.9601 1.8469z" fill="#7dc87a"/>
   <path d="m22.645 23.141 1.9601-1.8469-1.5363-1.4146z" fill="#52b164"/>
   <path d="m23.068 19.88 3.5493-1.3753-3.6023-1.0413z" fill="#64bc6e"/>
   <path d="m25.346 27.032-0.2119-3.6545-3.7348 2.9864z" fill="#61b66a"/>
   <path d="m21.4 26.364 3.7348-2.9864-2.4898-0.23577z" fill="#64bb6d"/>
   <path d="m14.645 9.9185-1.6687 0.53049 1.4833 4.853z" fill="#8acd80"/>
   <path d="m9.5332 12.492 1.6422-3.0454-4.1321 3.1043z" fill="#7dc678"/>
   <path d="m0.13046 15.119 0.13392 2.6223 0.55442-2.2824z" fill="#93d183"/>
   <path d="m0.8188 15.459-0.55442 2.2824 2.541 0.44864z" fill="#78c477"/>
   <path d="m26.565 13.986h-4.2115l0.66219 3.4776z" fill="#90d082"/>
   <path d="m23.015 17.463-0.66219-3.4776-3.6288 0.33401z" fill="#87cc7e"/>
   <path d="m17.665 10.39-3.0196-0.47154-0.18542 5.3835z" fill="#67bc6e"/>
   <path d="m17.612 30.509 5.1651-1.8862-4.0526-1.2378z" fill="#64b76b"/>
   <path d="m17.612 30.509 4.0044-0.52304 1.1607-1.3631z" fill="#46a95d"/>
   <path d="m17.665 10.39-3.205 4.9119 4.2645-0.98238z" fill="#9dd688"/>
   <path d="m14.645 9.9185-3.4699-0.47154 1.8012 1.002z" fill="#90ce7f"/>
   <path d="m12.977 10.449-1.8012-1.002-1.6422 3.0454z" fill="#88cd7f"/>
   <path d="m7.0434 12.551-4.9532-1.7879 2.9401 3.2812z" fill="#75c477"/>
   <path d="m20.075 10.488-2.4104-0.09824 1.0595 3.9295z" fill="#91d182"/>
   <path d="m16.59 31.153 1.5042-0.16696-0.48259-0.47729z" fill="#64b469"/>
   <path d="m29.293 19.841-2.6752-1.336-2.0131 2.79z" fill="#70c071"/>
   <path d="m24.605 21.294 2.0131-2.79-3.5493 1.3753z" fill="#71c275"/>
   <path d="m25.562 27.612-0.21584-0.58028-2.5693 1.5915z" fill="#60ba6c"/>
   <path d="m22.777 28.623 2.5693-1.5915-3.9467-0.66802z" fill="#4bac60"/>
   <path d="m29.293 19.841-0.87409-2.397-1.8012 1.061z" fill="#6cbf71"/>
   <path d="m18.095 30.987 3.5218-1.0003-4.0044 0.52304z" fill="#63bb6e"/>
   <path d="m4.1033 7.8555-2.0131 2.9078 4.9532 1.7879z" fill="#a0d789"/>
   <path d="m0.18479 14.287-0.05426 0.83264 0.68834 0.33994z" fill="#83ca7c"/>
   <path d="m27.28 12.61-7.2046-2.1219 2.2779 3.4973z" fill="#82c879"/>
   <path d="m22.353 13.986-2.2779-3.4973-1.3509 3.8313z" fill="#89cb7c"/>
   <path d="m17.665 10.39 1.4303-2.8489-4.4499 2.3774z" fill="#81c677"/>
   <path d="m7.1229 6.323-3.0196 1.5325 7.0722 1.5915z" fill="#8fd082"/>
   <path d="m2.0902 10.763-1.9054 3.5232 0.63401 1.1726z" fill="#a3d98a"/>
   <path d="m29.293 19.841-4.6883 1.4539 0.52976 2.0826z" fill="#6bbe71"/>
   <path d="m26.618 18.505 1.8012-1.061-5.4035 0.01968z" fill="#68bd70"/>
   <path d="m30.21 21.053-0.91713-1.212-4.1586 3.5366z" fill="#7ec87b"/>
   <path d="m28.419 17.444-1.8541-3.458-3.5493 3.4776z" fill="#78c578"/>
   <path d="m23.029 29.315 2.5336-1.7027-2.7851 1.0112z" fill="#57b467"/>
   <path d="m23.029 29.315-0.25152-0.69154-1.1607 1.3631z" fill="#70c275"/>
   <path d="m29.053 23.5 1.1567-2.4473-5.0757 2.3246z" fill="#6fc072"/>
   <path d="m12.023 6.1069-0.84761 3.3401 3.4699 0.47154z" fill="#89cc7e"/>
   <path d="m11.175 9.4469-7.0722-1.5915 2.9401 4.6958z" fill="#8acb7d"/>
   <path d="m2.0902 10.763-0.58577-1.5201-1.3196 5.0433z" fill="#9ad586"/>
   <path d="m4.1033 7.8555-2.5988 1.3878 0.58577 1.5201z" fill="#93d183"/>
   <path d="m25.562 27.612 0.38842-0.33761-0.60426-0.24267z" fill="#60b96c"/>
   <path d="m29.796 13.71-2.5163-1.1003-0.71516 1.3753z" fill="#7ec87b"/>
   <path d="m26.565 13.986 0.71516-1.3753-4.9267 1.3753z" fill="#7dc87b"/>
   <path d="m27.836 11.628-0.55624 0.98238 2.5163 1.1003z" fill="#83c97a"/>
   <path d="m22.936 7.4625-3.8407 0.078588 0.98003 2.9471z" fill="#9cd587"/>
   <path d="m20.075 10.488-0.98003-2.9471-1.4303 2.8489z" fill="#9bd486"/>
   <path d="m8.6591 6.0676-1.5363 0.25542 4.0526 3.124z" fill="#9dd688"/>
   <path d="m17.4 5.2227-5.377 0.88415 2.6223 3.8116z" fill="#a6da8c"/>
   <path d="m27.689 25.468-2.5545-2.0913 0.2119 3.6545z" fill="#5cb86a"/>
   <path d="m31.176 15.425-1.3794-1.7149-1.3774 3.733z" fill="#6fc173"/>
   <path d="m12.023 6.1069-3.3639-0.039283 2.5163 3.3794z" fill="#a1d889"/>
   <path d="m25.951 27.274 1.7383-1.8058-2.3426 1.5631z" fill="#5ab669"/>
   <path d="m27.689 25.468 1.3645-1.9686-3.919-0.12278z" fill="#53b365"/>
   <path d="m29.796 13.71-3.2315 0.27507 1.8541 3.458z" fill="#7bc274"/>
   <path d="m28.419 17.444 0.87409 2.397 1.8827-4.4152z" fill="#68b66a"/>
   <path d="m27.28 12.61-1.5628-4.1653-5.6419 2.0433z" fill="#98d486"/>
   <path d="m31.176 15.425-1.8827 4.4152 1.2787 0.1296z" fill="#71be70"/>
   <path d="m25.717 8.4449-2.7812-0.98238-2.8607 3.0257z" fill="#9bd587"/>
   <path d="m19.095 7.5411-1.6952-2.3184-2.7547 4.6958z" fill="#8fce7f"/>
   <path d="m30.572 19.97-1.2787-0.1296 0.91713 1.212z" fill="#8fd082"/>
   <path d="m23.254 5.1048-5.8538 0.11789 1.6952 2.3184z" fill="#87c779"/>
   <path d="m6.5666 3.4544 0.55625 2.8686 1.5363-0.25542z" fill="#8bce80"/>
   <path d="m27.613 5.7494-1.8957 2.6955 3.4846-0.38115z" fill="#7abf72"/>
   <path d="m27.836 11.628-2.119-3.1829 1.5628 4.1653z" fill="#88cb7d"/>
   <path d="m23.201 2.4917-7.2576 1.4146 1.4568 1.3164z" fill="#7ac475"/>
   <path d="m29.202 8.0638-1.3656 3.5641 2.6627-0.52623z" fill="#95d183"/>
   <path d="m3.3311 6.197 0.77214 1.6585 3.0196-1.5325z" fill="#b5e092"/>
   <path d="m3.3311 6.197-1.8267 3.0463 2.5988-1.3878z" fill="#a7da8c"/>
   <path d="m3.3311 6.197 3.7917 0.12602-0.55625-2.8686z" fill="#9dd688"/>
   <path d="m6.5666 3.4544 2.0925 2.6131-0.68039-3.9212z" fill="#99d284"/>
   <path d="m23.254 5.1048-4.1585 2.4363 3.8407-0.078588z" fill="#91cf81"/>
   <path d="m17.4 5.2227-1.4568-1.3164-3.9202 2.2005z" fill="#9cd588"/>
   <path d="m13.639 3.1794-4.9797 2.8882 3.3639 0.039283z" fill="#8ecd7e"/>
   <path d="m15.943 3.9063-2.3044-0.72696-1.6157 2.9275z" fill="#b4e092"/>
   <path d="m31.176 15.425-0.11872-1.697-1.2607-0.017822z" fill="#55ad63"/>
   <path d="m25.585 4.8298-2.6488 2.6328 2.7812 0.98238z" fill="#8ecf80"/>
   <path d="m25.585 4.8298-2.3309 0.27507-0.31785 2.3577z" fill="#6ab96c"/>
   <path d="m15.943 3.9063-2.0395-3.4383-0.26487 2.7114z" fill="#94d284"/>
   <path d="m13.639 3.1794-5.6601-1.033 0.68039 3.9212z" fill="#a1d889"/>
   <path d="m6.153 3.3659-2.8219 2.831 3.2355-2.7425z" fill="#7ec779"/>
   <path d="m27.613 5.7494-2.0281-0.91969 0.13244 3.6152z" fill="#9cd486"/>
   <path d="m16.279 0.13278-2.3756 0.3352 2.0395 3.4383z" fill="#8bcc7e"/>
   <path d="m13.639 3.1794 0.26487-2.7114-5.9249 1.6783z" fill="#98d183"/>
   <path d="m6.4314 3.1535-0.27842 0.21239 0.41363 0.088487z" fill="#86cb7d"/>
   <path d="m29.202 8.0638-3.4846 0.38115 2.119 3.1829z" fill="#95d284"/>
   <path d="m30.499 11.102-0.70258 2.6089 1.2607 0.01782z" fill="#63bb6d"/>
   <path d="m30.499 11.102-2.6627 0.52623 1.9601 2.0826z" fill="#5db568"/>
   <path d="m23.201 2.4917-5.8008 2.731 5.8538-0.11789z" fill="#7dc678"/>
   <path d="m7.9787 2.1463-1.5473 1.0072 0.13521 0.30087z" fill="#80c779"/>
   <path d="m21.497 1.2684 1.7037 1.2233 0.31819-0.2383z" fill="#91d082"/>
   <path d="m25.585 4.8298-2.3839-2.3381 0.052958 2.6131z" fill="#96d284"/>
   <path d="m23.201 2.4917 2.3839 2.3381-1.7611-2.3899z" fill="#83ca7c"/>
   <path d="m13.904 0.46798-0.78718-0.14183-5.1378 1.8202z" fill="#b5e094"/>
   <path d="m23.824 2.4399 1.7611 2.3899 2.0281 0.91969z" fill="#78c374"/>
   <path d="m23.201 2.4917-1.7037-1.2233-5.5539 2.6379z" fill="#87cc7d"/>
   <path d="m13.904 0.46798 0.0896-0.25956-0.87679 0.11772z" fill="#8bcc7d"/>
  </g>
  <a transform="matrix(1.0011 0 0 .74259 -150.15 -84.701)">
   <path d="m171.46 115.77-5.2121-1.5292-0.33564 5.0816z" fill="#95d082" shape-rendering="crispEdges" stroke-width=".26458"/>
  </a>
  <path d="m16.279 0.13278-2.286 0.075655-0.0896 0.25956z" fill="#96d385" shape-rendering="crispEdges" stroke-width=".22813"/>
  <path d="m23.824 2.4399-0.30456-0.18649-0.31819 0.2383z" fill="#88ca7c" shape-rendering="crispEdges" stroke-width=".22813"/>
  <g stroke="#000" stroke-width=".22813">
   <path d="m7.9787 2.1463s2.1789-1.3579 5.1378-1.8202z" fill="#b5e094" stroke-dasharray="0, 2.5094"/>
   <path d="m13.993 0.20842s1.1186-0.12894 2.286-0.07564z" fill="#96d385" stroke-dasharray="0, 2.50939"/>
   <path d="m16.279 0.13278s2.6097 0.018565 5.2179 1.1356l-5.2179-1.1356" fill="#95d082" stroke-dasharray="0, 2.5094"/>
   <path d="m21.497 1.2684s1.4587 0.61326 2.0219 0.98501z" fill="#91d082" stroke-dasharray="0, 2.50939"/>
   <path d="m23.824 2.4399s1.5137 0.69436 3.7892 3.3096z" fill="#91d082" stroke-dasharray="0, 2.5094"/>
   <path d="m16.59 31.153s-3.6135 0.41411-7.408-1.3841z" fill="#7ac678" stroke-dasharray="0, 2.50939"/>
   <path d="m0.18479 14.287s0.47989-3.4006 1.3196-5.0433l-1.3196 5.0433" fill="#9ad586" stroke-dasharray="0, 2.5094"/>
   <path d="m31.176 15.425s0.18472 2.0489-0.60396 4.5448l0.60396-4.5448" fill="#71be70" stroke-dasharray="0, 2.50939"/>
  </g>
  <ellipse cx="15.652" cy="15.648" rx="15.527" ry="15.53" fill="none" stroke="#000" stroke-width=".22813"/>
  <g stroke-width=".26458" aria-label="JK">
   <path d="m5.5971 24.601q-0.074844-0.07484-0.074844-0.09979-0.049896 0-0.19958-0.07484-0.12474-0.07484-0.17463-0.09979-0.074844 0-0.12474-0.02495-0.024948 0-0.049896 0 0-0.02495-0.024948-0.02495t-0.049896-0.02495q-0.049896 0-0.24948-0.02495-0.17463-0.0499-0.22453-0.07484 0 0-0.049896-0.04989-0.024948-0.02495-0.024948-0.0499-0.024948-0.02495-0.049896-0.07484-0.049896-0.09979-0.049896-0.09979-0.074844-0.07484-0.17463-0.07484-0.049896 0-0.24948-0.02495-0.19958-0.0499-0.22453-0.07484 0-0.02495-0.074844-0.12474-0.074844-0.09979-0.12474-0.14969v-0.0998q-0.049896 0-0.074844-0.02495-0.099791-0.0499-0.099791-0.0499-0.074844 0-0.074844-0.09979-0.049896-0.0499-0.12474-0.17464-0.074844-0.14969-0.074844-0.19958 0-0.0499-0.049896-0.29937-0.024948-0.27443-0.024948-0.32432-0.024948-0.0499-0.049896-0.12474-0.024948-0.09979-0.049896-0.14969 0-0.02495-0.049896-0.12474-0.024948-0.0499-0.024948-0.07484h-0.17463q-0.024948 0-0.099791 0.04989-0.074844 0.0499-0.12474 0.0499l-0.049896-0.0499q-0.024948-0.02495-0.049896-0.02495t-0.049896-0.02495q-0.099791 0-0.099791-0.07484 0.024948 0 0.049896-0.02495 0.024948-0.04989 0.049896-0.07484 0-0.0499-0.024948-0.12474t-0.024948-0.12474q-0.024948 0-0.024948 0 0-0.02495-0.024948-0.02495l-0.17463 0.17464v-0.34927q0-0.02495 0.099791-0.12474 0.12474-0.12474 0.17464-0.14969 0.024948-0.02495 0.074844-0.12474 0.049896-0.12474 0.099791-0.24948 0.074844-0.12474 0.12474-0.22453 0.074844-0.09979 0.074844-0.12474 0-0.0499 0.099791-0.17464 0.12474-0.14969 0.14969-0.17464v0.87317q0.024948 0 0.099791-0.04989 0.074844-0.0499 0.074844-0.02495 0.024948 0.02495 0.049896 0.09979t0.074844 0.07484q0.049896 0.02495 0.099791 0.07484 0.049896 0.0499 0.074844 0.07484 0.049896 0.02495 0.074844 0.0499 0.024948 0 0.099791 0.02495 0.074844 0.02495 0.099791 0.0499 0.024948 0.02495 0.074844 0.09979 0.074844 0.0499 0.074844 0.09979 0 0.02495 0.099791 0.12474 0.049896 0.0499 0.074844 0.12474 0 0.02495 0.024948 0.02495h0.049896l0.049896-0.02495q0.049896 0 0.17464-0.09979 0.14969-0.12474 0.19958-0.14969 0 0.02495 0.049896 0.0499 0.074844 0.02495 0.099791 0.02495 0.024948 0 0.12474 0 0.12474 0 0.24948 0t0.22453 0q0.12474 0 0.14969 0 0.024948 0 0.22453 0.12474 0.22453 0.09979 0.29937 0.14969l0.099791 0.09979h0.29937q0-0.02495 0.024948-0.02495t0.049896-0.02495 0.074844-0.04989h0.12474q0.024948 0.02495 0.074844 0.02495t0.099791 0.02495l0.14969 0.0499q0.049896 0.02495 0.12474 0.07484 0.074844 0.04989 0.099791 0.09979l0.24948-0.27443q0.024948 0.02495 0.024948 0.07484 0.024948 0.02495 0.049896 0.02495h0.12474q0.024948 0 0.074844-0.02495 0.049896-0.04989 0.074844-0.07484 0.049896-0.02495 0.099791-0.07484 0.074844-0.07484 0.099791-0.09979h0.099792q0 0.02495 0.074844 0.0499 0.049896 0.02495 0.099791 0.02495 0.024948 0.02495 0.099791 0.02495 0.074844 0 0.12474 0 0 0.02495 0 0.14969 0.024948 0.09979 0.074844 0.09979 0.049896 0.02495 0.074844 0.04989 0.049896 0.0499 0.074844 0.0499 0.099791 0.0499 0.099791 0.09979l-0.19958 0.19958q-0.024948 0-0.049896 0.07484 0 0.04989 0 0.07484-0.049896 0.0499-0.099791 0.19958-0.024948 0.12474-0.024948 0.14969 0.049896 0 0.099791 0.0499 0.049896 0.04989 0.074844 0.07484 0.074844 0.07484 0.074844 0.17464h-0.22454q-0.024948 0.02495-0.024948 0.0499v0.07484q0.024948 0.0499 0.049896 0.07484 0.074844 0.07484 0.074844 0.07484 0 0.02495 0.024948 0.04989 0 0.02495 0.024948 0.0499h0.099792q0.049896-0.02495 0.074844-0.09979t0.024948-0.09979h0.074844q0.024948 0.02495 0.074844 0.09979 0.049896 0.04989 0.049896 0.09979 0.024948 0 0.074844-0.02495 0.074844-0.0499 0.074844-0.07484 0.049896-0.0499 0.19958-0.17464 0.14969-0.14969 0.19958-0.19958 0-0.02495 0.024948-0.07484 0.024948-0.07484 0.024948-0.12474l0.024948-0.02495q0-0.02495-0.024948-0.0499-0.049896 0-0.074844-0.02495-0.074844-0.07484-0.074844-0.0499-0.049896 0-0.17463-0.0499-0.099791-0.04989-0.12474-0.04989-0.024948-0.07484-0.049896-0.12474-0.024948-0.04989-0.024948-0.12474v-0.19958q0-0.02495 0.074844-0.09979 0.074844-0.09979 0.099791-0.09979 0.024948 0.04989 0.074844 0.19958 0.074844 0.14969 0.12474 0.19958 0.024948 0.02495 0.099791 0.12474 0.099791 0.09979 0.14969 0.12474 0.049896-0.0499 0.17463-0.17464 0.14969-0.14969 0.19958-0.19958 0.024948-0.02495 0.12474-0.02495 0.12474-0.02495 0.14969-0.0499 0.07484 0 0.07484-0.09979 0.02495-0.0499 0.09979-0.19958 0.09979-0.14969 0.17464-0.32432 0.09979-0.17464 0.17464-0.32432 0.07484-0.17464 0.09979-0.24948 0.04989-0.0499 0.12474-0.22453 0.07484-0.17464 0.07484-0.22453v-0.44906q0-0.07484 0.02495-0.32432 0.0499-0.24948 0.09979-0.54885t0.09979-0.54885q0.0499-0.24948 0.0499-0.32432v-1.447q0-0.02495-0.02495-0.14969-0.02495-0.14969-0.07484-0.19958 0-0.02495-0.04989-0.09979-0.0499-0.07484-0.0499-0.09979v-0.82328q0-0.02495-0.0499-0.14969-0.02495-0.14969-0.02495-0.19958v-0.6237q0-0.07484-0.02495-0.22453 0-0.14969-0.02495-0.29937 0-0.17464-0.02495-0.29937-0.02495-0.14969-0.02495-0.19958 0-0.0499-0.02495-0.17464-0.02495-0.12474-0.07484-0.27443-0.02495-0.14969-0.0499-0.27443t-0.02495-0.17464q-0.02495 0-0.22453 0.02495-0.17464 0-0.22453 0h-0.29935q-0.049896 0-0.29937 0.02495-0.24948 0.02495-0.29937 0.0499-0.049896-0.02495-0.14969-0.02495-0.074844 0-0.099791 0-0.099791 0-0.39917 0-0.27443 0-0.34927 0.02495-0.099791 0-0.099791 0.07484 0 0.02495-0.049896 0.14969-0.024948 0.09979-0.024948 0.12474h-0.049896l-0.074844-0.02495q-0.049896-0.02495-0.24948-0.12474-0.19958-0.12474-0.24948-0.17463-0.024948 0.02495-0.099791 0.07484-0.049896 0.02495-0.099791 0.02495-0.024948 0-0.22453 0-0.19958-0.02495-0.22453-0.02495-0.024948 0-0.099791 0.0499-0.074844 0.02495-0.099791 0.02495-0.074844-0.02495-0.39917-0.02495-0.29937-0.02495-0.42411-0.02495 0 0.02495-0.074844 0.09979-0.074844 0.0499-0.12474 0.0499-0.024948 0-0.12474 0-0.099791-0.02495-0.14969-0.02495-0.024948 0-0.099791 0.09979-0.049896 0.07484-0.074844 0.09979-0.024948 0-0.19958 0.02495-0.14969 0.02495-0.27443 0.02495-0.099791-0.02495-0.42411 0-0.32432 0.02495-0.42411 0.0499-0.074844-0.02495-0.14969-0.02495-0.049896 0-0.12474 0-0.074844 0-0.12474-0.02495-0.099791 0-0.24948 0-0.12474 0-0.14969-0.02495-0.049896-0.02495-0.074844-0.0499-0.074844-0.07484-0.074844-0.0499-0.074844 0-0.074844-0.07484-0.12474-0.12474-0.12474-0.19958-0.049896-0.02495-0.19958-0.02495-0.14969 0-0.19958-0.02495-0.024948 0-0.049896-0.02495-0.049896-0.0499-0.049896-0.07484-0.024948-0.02495-0.049896-0.07484l-0.074844-0.07484q0-0.02495-0.024948-0.0499 0-0.04989 0-0.07484-0.024948 0-0.099791-0.0499-0.074844-0.0499-0.099791-0.0499-0.074844-0.07484-0.099791-0.07484 0-0.0499-0.024948-0.17464-0.024948-0.14969-0.024948-0.22453v-0.19958q0-0.02495 0-0.04989 0.024948-0.02495 0.024948-0.07484v-0.09979q0-0.09979 0.049896-0.27443 0.049896-0.17464 0.049896-0.22453 0.024948 0 0.099791 0 0.074844-0.02495 0.099791-0.02495 0.024948-0.02495 0.049896-0.12474 0.049896-0.12474 0.074844-0.14969 0.024948-0.0499 0.049896-0.09979 0.024948-0.07484 0.024948-0.09979 0.049896 0 0.074844-0.02495l0.049896-0.0499h0.074844l0.024948 0.02495q0 0.0499 0.024948 0.14969 0.024948 0.07484 0.024948 0.12474l0.049896-0.0499q0.049896-0.0499 0.049896-0.0499 0.024948-0.0499 0.024948-0.14969 0-0.099791 0-0.14969l0.074844-0.074844q0.074844 0 0.099791 0.024948h0.074844q0.049896 0 0.099791 0.074844 0.074844 0.074843 0.099791 0.12474 0.049896-0.07484 0.22453-0.22453 0.19958-0.14969 0.24948-0.19958 0.049896 0 0.099791-0.024948 0.099791-0.049896 0.099791-0.049896t0.024948-0.049896q0-0.024948 0.024948-0.049896 0.024948-0.049896 0.074844-0.14969 0.049896-0.099791 0.074843-0.12474 0-0.049896 0.024948-0.024948 0.049896 0 0.074844-0.024948l0.59875 0.64864q0.024948 0.024948 0.074844 0.024948 0.024948 0.024948 0.099791 0.024948h0.12474q0.049896 0 0.074844-0.024948 0.024948 0 0.12474-0.099791 0.099791-0.099791 0.14969-0.14969v-0.074844q0.024948-0.024948-0.099791-0.049896-0.099791-0.049896-0.14969-0.074844h-0.12474q-0.024948 0-0.074844 0.049896-0.024948 0.024948-0.074844 0.049896-0.049897-0.02494-0.14969-0.049888-0.099791-0.024948-0.14969-0.074844v-0.099792t0.049896-0.049896q0.024948 0 0.049896-0.024948 0.049896-0.024948 0.14969 0 0.12474 0.024948 0.14969 0.024948 0.024948-0.024948 0.12474-0.049896 0.12474-0.049896 0.14969-0.074844 0.024948 0.024948 0.12474-0.024948 0.12474-0.074844 0.14969-0.099791l1.0229 0.074844q0.049896 0.024948 0.074844 0.049896t0.024948 0.049896q0.024948 0.024948 0.049896 0.049896v0.12474q-0.049896 0.024948-0.12474 0.099791-0.049896 0.049896-0.049896 0.074844l-0.024948 0.049896v0.049896q0.049896 0 0.17463 0.049896 0.12474 0.049896 0.14969 0.049896 0.049896 0 0.074844-0.024948t0.024948-0.049896q0.024948-0.049896 0.074844-0.24948 0.049896-0.19958 0.099791-0.24948l0.024948-0.024948q0.024948 0 0.024948 0 0-0.024948 0.024948-0.024948v-0.099792q-0.074844 0-0.074844-0.099791v-0.074844q0.074844-0.074844 0.099791-0.074844h0.17464q0.049896 0 0.049896 0.099791v0.17464q-0.024948 0.024948-0.099791 0.19958-0.074844 0.14969-0.099791 0.17463v0.14969q-0.024948 0.049896-0.024948 0.12474v0.074844q0 0.024948 0.049896 0.12474 0.049896 0.099791 0.024948 0.14969 0.024948 0.049895 0.024948 0.12474 0.024948 0.0499 0.049896 0.0499h0.12474l0.024948-0.02495q0.049896-0.0499 0.049896-0.0499l0.099787-0.14968 0.19958-0.19958q0.074844 0.024948 0.32432 0.074844 0.24948 0.049896 0.29937 0.074844l0.099791 0.099791h0.12474q0.049896 0.024948 0.14969 0.024948l0.099791-0.049896q0.049896-0.024948 0.074844-0.049896 0.049896 0 0.14969-0.024948 0.099791-0.024948 0.14969-0.049896v-0.074843q-0.024948-0.049896-0.049895-0.17463-0.024948-0.14969-0.049896-0.22453 0 0.049896-0.074844 0.12474-0.024948 0.024948-0.074844 0.024948-0.049896-0.024948-0.099791-0.024948 0-0.049896 0-0.14969 0.024948-0.12474 0.024948-0.14969 0-0.024948-0.049896-0.099791-0.024948-0.074844-0.024948-0.099791 0-0.074844 0.074844-0.074844h0.14969t0.049896 0.024948h0.049896q0.024948 0 0.049896 0.074844 0.049896 0.074844 0.074844 0.099791 0 0.024948 0.024948 0.049896 0.024948 0 0.049896 0.049896t0.049896 0.074844l0.049896 0.024948 0.049896-0.024948q0.024948 0 0.074844-0.074844t0.074844-0.074844h0.049896l0.049896 0.099791q0.024948 0.049896 0.024948 0.074844 0.024948 0.074844-0.024948 0.29937-0.049896 0.22453-0.049896 0.32432 0.049896 0 0.12474-0.024948 0.074844-0.049896 0.099791-0.024948 0.024947 0 0.024947 0.099791 0.02495 0.099791 0.07484 0.099791 0.02495 0 0.12474-0.02495 0.09979-0.02495 0.14969-0.0499l0.0499-0.099792q0.02495-0.049896 0.0499-0.074844 0.02495-0.049896 0.02495-0.19958 0-0.14969 0-0.19958 0.02495-0.074844 0.02495-0.14969 0-0.14969 0.02495-0.14969 0-0.049896 0.02495-0.22453 0.02495-0.19958 0.0499-0.24948 0.04989-0.024948 0.09979-0.074844 0.07484-0.074844 0.17464-0.12474 0.02495 0 0.07484 0.024948 0.07484 0 0.09979-0.024948 0.0499 0 0.09979-0.049896 0.07484-0.074844 0.09979-0.099791l0.07484 0.099791q0.02495 0.049896 0.0499 0.27443 0.0499 0.22453 0.0499 0.27443 0 0 0.0499 0.049896 0.02495 0.024948 0.0499 0.024948l0.34927-0.37422q0.02495 0.099791 0.0499 0.37422 0.0499 0.27443 0.07484 0.34927v0.099791q-0.0499 0-0.14969 0-0.09979 0-0.14969 0.024948-0.02495 0.024948-0.0499 0.024948t-0.0499 0.049896v0.19958q0.02495 0 0.0499 0.049896 0.02495 0.024948 0.0499 0.024948h0.17464q0.02495 0 0.0499 0.099791 0.0499 0.074843 0.07484 0.099791 0.02495 0.0499 0.07484 0.07484l0.07484 0.07484q0.02495 0.0499 0 0.14969 0 0.09979 0 0.14969 0.07484 0.07484 0.12474 0.07484h0.24948q0-0.0499 0.02495-0.09979 0.04989-0.09979 0.04989-0.09979h0.19958q0 0.02495 0.02495 0.09979t0.0499 0.09979 0.0499 0.14969q0.0499 0.09979 0.0499 0.12474 0.02495 0.02495 0.07484 0.14969 0.0499 0.09979 0.09979 0.09979 0 0.0499 0.12474 0.17464 0.12474 0.09979 0.14969 0.12474v0.0998q-0.02495 0.02495-0.04989 0.09979 0 0.0499-0.02495 0.07484h-0.09979l-0.09979-0.07484q-0.02495-0.02495-0.09979-0.0499-0.0499-0.0499-0.07484-0.0499-0.02495 0.0499-0.07484 0.19958-0.0499 0.12474-0.09979 0.17464v0.0499q0.02495 0.02495 0.09979 0.14969 0.07484 0.09979 0.07484 0.14969 0.02495 0.0499 0.09979 0.27443 0.07484 0.22453 0.07484 0.27443v0.24948q0 0.02495-0.02495 0.12474 0 0.09979-0.02495 0.22453 0 0.09979-0.02495 0.19958 0 0.07484 0 0.09979t0.02495 0.14969q0.0499 0.09979 0.0499 0.12474 0 0.0499 0 0.22453 0.02495 0.17464 0.0499 0.37422 0.02495 0.19958 0.02495 0.37422 0.02495 0.17464 0.02495 0.22453 0 0.02495 0.02495 0.19958 0.0499 0.17464 0.07484 0.24948 0.02495 0.02495 0.04989 0.17464 0.02495 0.14969 0.02495 0.19958 0 0.02495-0.02495 0.09979t-0.04989 0.07484v0.0998q0.02495 0 0.02495 0.02495 0 0.0499 0.02495 0.0499 0.02495 0.04989 0.02495 0.07484t-0.02495 0.09979-0.04989 0.09979q0 0.0499-0.0499 0.14969-0.0499 0.09979-0.0499 0.14969 0 0.02495-0.07484 0.0499-0.07484 0-0.09979 0l0.17464 0.27443v1.3971q0 0.02495 0.0499 0.07484 0.02495 0.02495 0.0499 0.07484 0 0.02495 0 0.09979 0.02495 0.0499 0.02495 0.09979 0 0.0499-0.02495 0.09979 0 0.04989 0 0.07484-0.02495 0.17464-0.0499 0.42411 0 0.22453-0.0499 0.47401-0.04989 0.27443-0.09979 0.5738l-0.34927 0.17464-0.02495 0.02495v0.0499q0 0.02495 0.02495 0.02495 0 0.02495 0.02495 0.07484l0.0499 0.09979v0.0998q0 0.09979-0.07484 0.17464-0.02495 0.02495-0.09979 0.09979-0.07484 0.0499-0.09979 0.07484-0.02495 0.04989-0.09979 0.14969-0.0499 0.09979-0.07484 0.12474-0.02495 0.0499-0.09979 0.27443-0.0499 0.22453-0.0499 0.27443l-0.09979 0.09979q-0.0499 0.0499-0.07484 0.0499-0.02495 0.02495-0.04989 0.02495 0 0.0499-0.12474 0.27443-0.09979 0.19958-0.14969 0.27443 0 0.02495-0.02495 0.12474-0.02495 0.09979-0.0499 0.14969l-0.17464-0.17463-0.37422 0.37422q-0.02495 0-0.17464 0.02495-0.14969 0.02495-0.19958 0.0499-0.02495 0.02495-0.09979 0.09979-0.0499 0.0499-0.07484 0.09979v0.07485t0.04989 0.09979q0.02495 0.0499 0.0499 0.07484 0 0.02495 0 0.07484 0.02495 0.02495 0.02495 0.07484v0.12474h-0.12474l-0.07484-0.07484h-0.09979l-0.0499 0.04989q-0.02495 0.02495-0.0499 0.02495l-0.0499 0.09979q-0.02495 0.02495-0.02495 0.04989 0 0.02495-0.02495 0.02495-0.02495 0.0499-0.17464 0.19958-0.12474 0.14969-0.17463 0.17464 0-0.02495-0.074844-0.07484-0.074844-0.02495-0.12474 0-0.024948 0.0499-0.074844 0.07484-0.099791 0.09979-0.099791 0.09979-0.074844 0-0.37422 0.02495-0.27443 0.0499-0.32432 0.07484-0.049896 0-0.14969 0.07484-0.099791 0.07484-0.14969 0.07484 0 0.02495-0.024948 0.02495h-0.074844q-0.024948 0-0.049896-0.02495-0.049896 0-0.074844-0.02495l-0.049896-0.0499q-0.024948 0-0.099791 0.02495-0.049896 0.0499-0.074844 0.0499h-0.99797q0-0.02495-0.049896-0.07484-0.024948-0.0499-0.024948-0.07484-0.049896-0.02495-0.14969-0.07484-0.099791-0.02495-0.12474-0.02495-0.049896-0.02495-0.12474-0.09979-0.074844-0.0499-0.099791-0.07484zm3.817 0.19958q-0.049896 0-0.049896 0.07484 0 0.09979 0.049896 0.09979 0.074844 0 0.074844-0.09979 0-0.07484-0.074844-0.07484zm1.7463-1.5468q-0.07484 0-0.07484 0.09979 0 0.07484 0.07484 0.07484t0.07484-0.07484q0-0.09979-0.07484-0.09979zm-3.1434-0.87318-0.049896 0.0499v0.07484h0.099791v-0.17464zm-5.4885-1.3222q-0.074844 0-0.074844 0.09979 0 0.07484 0.074844 0.07484 0.049896 0 0.049896-0.07484 0-0.09979-0.049896-0.09979zm10.079-0.64864q0 0.02495 0.02495 0.09979 0.0499 0.07484 0.09979 0.09979 0.02495 0.02495 0.0499 0.02495h0.07484q0-0.02495-0.02495-0.09979-0.02495-0.09979-0.02495-0.12474-0.02495 0-0.02495 0 0-0.02495-0.02495-0.02495t-0.02495-0.02495q-0.12474 0-0.12474 0.04989zm0.12474-9.3055q-0.0499 0.0499-0.09979 0.17464-0.02495 0.09979-0.02495 0.12474-0.02495 0.0499-0.02495 0.14969 0 0.07484 0 0.12474h0.14969l0.07484-0.37422v-0.09979q0-0.04989 0.02495-0.09979zm-8.9313-0.42411q-0.049896 0-0.049896 0.09979 0 0.07484 0.049896 0.07484 0.099791 0 0.099791-0.07484 0-0.09979-0.099791-0.09979zm0.99791-0.67359q-0.049896 0-0.074844 0.02495l-0.024948 0.02495q-0.024948 0.02495-0.024948 0.12474 0 0.0499-0.024948 0.07484h0.12474zm1.0977-0.37422h0.099791t0.049896-0.024948q0.024948-0.024948 0.024948-0.049896l-0.17464-0.024947zm4.8149 0.14969 0.074844-0.099791h-0.074844zm-3.2183-0.42411q0-0.024948 0.049896-0.12474 0.049896-0.099791 0.049896-0.12474 0-0.049896 0.024948-0.19958 0.049896-0.17463 0.074844-0.17463h0.22453q0.024948 0.024948 0.14969 0.024948h0.099791q0.049896 0 0.14969 0.049896 0.12474 0.049896 0.17463 0.074844 0.099791 0 0.099791 0.074844 0 0.024948 0 0.099791 0.024948 0.074844 0.024948 0.12474-0.024948 0.049896-0.049896 0.14969 0 0.074844 0 0.099791 0 0.074844-0.099791 0.074844-0.049896 0-0.19958 0.024948-0.14969 0-0.22453 0 0-0.049896-0.024948-0.12474 0-0.074844 0-0.12474-0.024948-0.024948-0.024948-0.049896-0.024948-0.024948-0.024948-0.049896-0.074844 0.074844-0.12474 0.074844 0 0.024948-0.024948 0.099791-0.024948 0.074844-0.049896 0.099791h-0.19958q0-0.024948-0.049896-0.049896-0.024948-0.024948-0.024948-0.049896z"/>
   <path d="m15.249 22.48q0-0.02495-0.0499-0.07484-0.02495-0.0499-0.0499-0.0499h-0.09979q-0.0499 0-0.12474 0.0499-0.07484 0.0499-0.12474 0.07484v-0.0499q0-0.42411 0.12474-0.59875 0.14969-0.17464 0.42411-0.37422 0 0 0.02495-0.0499 0 0-0.02495-0.04989v-0.02495q-0.0499 0-0.09979-0.02495l-0.09979-0.0499q-0.02495-0.04989 0.02495-0.14969 0.0499-0.09979 0.0499-0.14969h-0.52391q0.0499-0.12474 0.0499-0.44906 0.02495-0.34927 0.14969-0.37422l0.14969 0.09979 0.19958-0.24948q-0.22453 0.07484-0.27443-0.17464-0.02495-0.27443-0.02495-0.34927 0.19958 0 0.29938 0.12474 0.09979 0.12474 0.14969 0.27443 0.04989 0.12474 0.12474 0.24948 0.07484 0.12474 0.24948 0.12474h0.02495q0-0.09979 0.02495-0.32432 0.02495-0.24948 0.0499-0.49896 0.02495-0.27443 0.02495-0.5239 0.02495-0.24948 0.02495-0.34927v-0.44906q-0.02495-0.12474-0.0499-0.34927-0.02495-0.24948-0.07484-0.49896-0.02495-0.24948-0.0499-0.44906t-0.04989-0.24948q0-0.04989-0.09979-0.22453-0.07484-0.19958-0.12474-0.22453v-0.12474q0.0499-0.09979 0.12474-0.39917 0.07484-0.29937 0.09979-0.39916 0.14969 0.04989 0.17464-0.02495 0.0499-0.07484 0.0499-0.17464 0.02495-0.12474 0.0499-0.19958 0.0499-0.09979 0.22453-0.09979 0-0.27443-0.14969-0.44906-0.12474-0.19958-0.12474-0.5738 0-0.12474 0-0.19958 0.02495-0.09979 0.22453-0.04989-0.27443-0.12474-0.42411-0.49896-0.12474-0.39917-0.12474-0.67359v-0.07484q0-0.02495 0-0.17464 0.02495-0.17463 0.0499-0.32432 0.02495-0.17463 0.02495-0.32432 0.02495-0.14969 0.02495-0.19958v-0.02495q0-0.47401-0.12474-0.92307-0.09979-0.47401-0.09979-0.97297v-0.5239q0.0499-0.14969 0.19958-0.39917 0.17464-0.27443 0.24948-0.27443h0.12474q0 0.12474 0.04989 0.42411 0.07484 0.27443 0.27443 0.27443 0.09979 0 0.12474-0.074844 0.0499-0.074844 0.0499-0.14969 0.02495-0.074844 0.04989-0.14969 0.02495-0.074844 0.12474-0.074844v0.47401q0.0499 0 0.14969-0.024948 0.12474-0.049896 0.17463-0.024948 0.24948 0.12474 0.32432 0.5738 0.07484 0.42411 0.09979 0.92307 0.0499 0.49896 0.09979 0.92307 0.0499 0.42411 0.27443 0.47401v1.6965q0.09979 0.09979 0.22453 0.34927 0.12474 0.22453 0.27443 0.22453 0.12474 0 0.27443-0.14969t0.27443-0.32432q0.14969-0.19958 0.22453-0.39917 0.09979-0.19958 0.09979-0.29937 0.12474 0 0.34927 0.19958 0.22453 0.17464 0.22453 0.24948-0.22453 0-0.27443 0.07484-0.02495 0.07484-0.02495 0.24948 0.02495 0.02495 0.0499 0.02495 0.02495 0.02495 0.07484 0.02495 0.02495 0 0.12474-0.09979 0.0499-0.0499 0.09979-0.12474 0.0499 0 0.17464 0.12474 0.12474 0.09979 0.17464 0.09979h0.12474v-0.32432l-0.54885-0.5738 0.07484-0.09979q0.07484 0.0499 0.32432 0.22453 0.27443 0.17464 0.37422 0.22453h0.02495q0.02495 0 0.04989-0.02495 0.02495 0 0.0499-0.02495 0-0.07484-0.02495-0.22453-0.02495-0.14969 0.12474-0.17464 0.02495 0 0.14969 0.0499 0.12474 0.0499 0.17464 0.0499 0.02495-0.02495 0.07484-0.09979 0.0499-0.07484 0.0499-0.12474 0-0.02495-0.0499-0.0499-0.0499-0.04989-0.07484-0.04989-0.0499-0.02495-0.17464-0.07484-0.09979-0.0499-0.14969-0.0499v-0.89812q0-0.02495 0.34927-0.0499 0.34927-0.04989 0.54885-0.07484h0.44906q-0.12474-0.14969-0.22453-0.19958-0.07484-0.0499-0.14969-0.07484-0.07484-0.04989-0.12474-0.12474-0.0499-0.09979-0.07484-0.37422h0.04989q0.09979 0 0.19958 0.09979 0.12474 0.09979 0.19958 0.14969h0.12474q0.02495-0.02495 0.09979-0.09979t0.14969-0.14969q0.09979-0.07484 0.17464-0.12474 0.09979-0.07484 0.12474-0.07484 0.0499-0.02495 0.22453 0 0.17464 0 0.22453 0 0.09979-0.0499 0.09979-0.12474 0-0.12474-0.14969-0.42411-0.12474-0.29937-0.17464-0.37422 0.0499-0.099791 0.19958-0.17463 0.17464-0.074844 0.37422-0.12474 0.19958-0.074844 0.39916-0.099791 0.19958-0.049896 0.32432-0.049896 0.14969 0 0.27443 0.024948 0.12474 0 0.12474 0.19958 0 0.12474-0.07484 0.19958-0.0499 0.074844-0.0499 0.19958v0.049896q0.27443-0.12474 0.5239-0.47401 0.27443-0.37422 0.27443-0.69854 0-0.19958-0.02495-0.29937-0.02495-0.12474-0.09979-0.32432 0.14969-0.024948 0.19958-0.074844 0.0499-0.049896 0.07484-0.099791 0.02495-0.074844 0.07484-0.12474 0.0499-0.049896 0.19958-0.049896 0.29937 0 0.29937 0.099791 0.02495 0.074844 0.02495 0.34927 0.0499 0.024948 0.07484 0.024948h0.07484q0.02495-0.024948 0.09979-0.12474 0.07484-0.099791 0.09979-0.12474 0.07484 0 0.29937 0.049896 0.22453 0.024948 0.27443 0.024948v-0.62371h1.3971q0 0.44906-0.0499 0.54885-0.0499 0.099791-0.14969 0.12474-0.09979 0-0.22453 0.049896-0.12474 0.024948-0.29938 0.29937l0.32432 0.32432q-0.04989 0.12474-0.27443 0.17463-0.22453 0.024948-0.27443 0.049896 0.04989 0.37422-0.12474 0.5738-0.17464 0.19958-0.37422 0.34927-0.19958 0.12474-0.34927 0.24948-0.14969 0.099791-0.0499 0.29937-0.07484 0-0.34927 0.0499-0.24948 0.0499-0.32432 0.07484-0.09979 0-0.19958 0.17464-0.09979 0.17464-0.19958 0.39916-0.09979 0.19958-0.19958 0.39917-0.09979 0.17464-0.19958 0.22453-0.64864 0.42411-0.79833 0.59875t-0.12474 0.32432q0.02495 0.12474 0.02495 0.27443t-0.32432 0.47401q-0.07484 0.07484-0.22453 0.14969-0.14969 0.0499-0.34927 0.12474-0.17463 0.07484-0.37422 0.14969-0.17464 0.07484-0.27443 0.14969-0.34927 0.27443-0.54885 0.77338-0.19958 0.47401-0.47401 0.79833-0.14969 0.17464-0.37422 0.32432-0.19958 0.12474-0.39916 0.29937-0.17464 0.14969-0.32432 0.34927-0.12474 0.19958-0.12474 0.49896 0 0.14969 0.09979 0.22453 0.12474 0.0499 0.27443 0.09979 0.14969 0.02495 0.29937 0.04989 0.14969 0.02495 0.22453 0.07484l0.07484 0.19958q0.14969 0.19958 0.37422 0.27443 0.24948 0.07484 0.44906 0.19958 0.14969 0.09979 0.14969 0.29937 0.02495 0.17464 0 0.37422-0.02495 0.19958-0.04989 0.42411 0 0.19958 0.09979 0.34927 0.02495 0.02495 0.12474 0.07484 0.09979 0.02495 0.12474 0.0499 0 0.0499-0.04989 0.19958-0.0499 0.12474-0.0499 0.17464 0.37422 0 0.49896-0.09979 0.12474-0.12474 0.12474-0.49896h-0.32432q0.0499-0.12474 0.19958-0.17463 0.17464-0.0499 0.24948-0.0499 0.02495 0 0.0499 0.0499 0.0499 0.02495 0.07484 0.04989 0.17464 0.27443 0.37422 0.27443 0.19958-0.02495 0.42411 0.17463 0.17464 0.14969 0.27443 0.34927 0.09979 0.19958 0.19958 0.39917 0.12474 0.17464 0.27443 0.29937t0.42411 0.12474q0 0.19958 0.02495 0.42411 0.02495 0.22453 0.09979 0.42411 0.09979 0.19958 0.22453 0.34927 0.14969 0.12474 0.37422 0.12474 0.02495 0 0.09979 0 0.09979-0.02495 0.14969-0.02495-0.17464-0.19958-0.27443-0.37422-0.09979-0.17464-0.09979-0.44906 0.02495 0.02495 0.0499 0.02495 0 0 0.04989 0.02495h0.02495q0.02495 0.02495 0.14969 0.17464 0.12474 0.12474 0.17464 0.14969 0.02495 0.02495 0.14969 0.07484 0.14969 0.02495 0.29937 0.07484 0.14969 0.02495 0.27443 0.0499 0.14969 0.02495 0.17464 0.04989 0.04989 0 0.12474 0.09979 0.07484 0.07484 0.09979 0.09979 0.0499 0.0499 0.17464 0.12474 0.12474 0.07484 0.17464 0.09979v1.0229q0 0.19958-0.17464 0.29937-0.17464 0.09979-0.39916 0.14969-0.22453 0.02495-0.42411 0.04989-0.19958 0-0.24948 0.0499-0.02495 0.02495-0.0499 0.12474 0 0.09979-0.02495 0.22453 0 0.09979-0.02495 0.22453 0 0.09979 0 0.12474-0.02495 0.0499-0.22453 0.14969-0.17464 0.07484-0.22453 0.0499-0.17464-0.09979-0.22453-0.34927-0.04989 0.07484-0.14969 0.17464-0.07484 0.09979-0.19958 0.09979v-0.47401h-0.99791t-0.0499-0.0499l-0.0499-0.04989q0-0.0499-0.0499-0.19958-0.0499-0.17464-0.07484-0.27443v-0.0998q0.02495-0.02495 0.07484-0.09979 0.0499-0.09979 0.0499-0.12474-0.0499-0.0499-0.17464-0.17464-0.12474-0.12474-0.17463-0.17464v0.79833q-0.19958-0.07484-0.64864-0.37422-0.44906-0.32432-0.92307-0.69854-0.47401-0.37422-0.89812-0.72349-0.39917-0.37422-0.54885-0.54885-0.07484-0.09979-0.24948-0.27443-0.14969-0.17464-0.29937-0.34927-0.14969-0.19958-0.27443-0.34927-0.09979-0.17464-0.09979-0.24948 0.34927 0 0.5738-0.12474 0.22453-0.14969 0.22453-0.5738 0-0.0499-0.0499-0.12474-0.02495-0.07484-0.04989-0.09979-0.07484-0.02495-0.17464 0.02495l-0.09979 0.0499v0.5239q-0.07484-0.02495-0.12474-0.02495-0.12474 0-0.17464-0.02495-0.02495 0-0.12474-0.0499-0.07484-0.04989-0.09979-0.04989-0.22453 0-0.37422 0.12474-0.12474 0.12474-0.27443 0.22453h-0.14968q0.0499 0 0.09979-0.09979 0.0499-0.09979 0.0499-0.14969-0.0499-0.07484-0.24948-0.22453-0.17464-0.14969-0.39917-0.29937-0.22453-0.14969-0.44906-0.27443-0.19958-0.12474-0.27443-0.12474-0.0499 0-0.12474 0.12474-0.07484 0.12474-0.14969 0.29937-0.07484 0.14969-0.12474 0.29937-0.04989 0.14969-0.04989 0.17464 0 0.29937 0.17464 0.54885 0.19958 0.24948 0.19958 0.54885 0 0.02495-0.02495 0.0499 0 0.02495 0 0.0499v0.0499q-0.02495 0.04989-0.07484 0.19958-0.0499 0.12474-0.0499 0.17464l0.0499 0.09979q0.0499 0.09979 0.07484 0.09979 0.02495 0.0499 0.02495 0.14969 0 0.09979 0 0.12474-0.17464 0-0.27443-0.27443l-0.09979 0.09979q0 0.12474 0.04989 0.17464 0.07484 0.0499 0.12474 0.09979 0.07484 0.02495 0.12474 0.07484 0.07484 0.02495 0.07484 0.12474 0 0.02495-0.02495 0.02495 0 0 0 0.02495v0.0499q-0.02495 0.02495-0.12474 0.07484-0.09979 0.02495-0.12474 0.0499 0 0.02495-0.0499 0.22453-0.04989 0.17464-0.04989 0.22453 0 0.02495-0.0499 0.12474-0.02495 0.09979-0.07484 0.22453-0.02495 0.09979-0.07484 0.19958-0.02495 0.09979-0.02495 0.12474-0.02495 0.17464 0.09979 0.24948 0.12474 0.04989 0.12474 0.19958 0 0.27443-0.17464 0.5239-0.17464 0.24948-0.17464 0.59875h-0.32432v0.44906h-1.1227q0 0.09979 0.02495 0.09979 0.02495 0.02495-0.12474 0.09979-0.12474-0.02495-0.17464-0.17463-0.04989-0.14969-0.07484-0.34927 0-0.17464-0.02495-0.37422 0-0.17464-0.07484-0.29937zm9.3305 1.2224q0 0.02495 0.02495 0.07484 0.0499 0.02495 0.07484 0.0499h0.12474q0.02495-0.02495 0.04989-0.0499 0.0499-0.0499 0.0499-0.07484zm1.3222-0.32432h0.12474v-0.22453h-0.12474zm1.4719-0.19958q0.14969 0 0.22453-0.14969h-0.22453zm-4.9147-2.1705q-0.0499-0.02495-0.0499 0.04989t0.0499 0.07484q0.0499-0.07484 0-0.12474zm-4.9646-0.44906q-0.0499-0.02495-0.0499 0.04989t0.0499 0.07484q0.12474-0.07484 0-0.12474zm6.8607-0.42411q-0.0499-0.0499-0.0499 0.02495 0 0.07484 0.0499 0.07484 0.0499-0.02495 0.0499-0.0499 0-0.0499-0.0499-0.0499zm-3.1434 0q0-0.0499-0.07484-0.0499t-0.04989 0.0499q0.02495 0.02495 0.07484 0.02495 0.0499 0 0.0499-0.02495zm2.4449-0.22453h0.12474v-0.12474h-0.12474zm-1.6715-0.69854h0.12474l-0.12474-0.09979zm-4.1413-0.89812h0.09979v-0.09979h-0.09979zm2.4698-4.0166q-0.09979 0-0.09979 0.09979t0.09979 0.09979q0.07484 0 0.07484-0.09979t-0.07484-0.09979zm-0.79833 0h0.09979v-0.12474zm2.7942-0.92307q-0.02495 0.02495-0.0499 0.02495h-0.04989q-0.0499 0-0.17464 0.04989-0.09979 0.0499-0.14969 0.0499h0.42411zm-1.0229-0.34927q-0.04989 0-0.04989 0.12474t0.04989 0.12474q0.12474 0 0.12474-0.12474t-0.12474-0.12474zm1.2723-0.07484v-0.12474h-0.09979zm-4.9646-0.5738q-0.07484 0-0.07484 0.12474 0 0.09979 0.07484 0.09979 0.09979 0 0.09979-0.09979 0-0.12474-0.09979-0.12474zm4.3908-0.67359h0.12474v-0.22453h-0.12474zm-0.89812-0.12474q0.02495-0.0499-0.0499-0.0499-0.07484 0-0.0499 0.0499 0.0499 0.14969 0.09979 0zm1.1227-0.89812q-0.07484 0-0.07484 0.12474 0 0.09979 0.07484 0.09979t0.07484-0.09979q0-0.12474-0.07484-0.12474zm0.34927 0h0.09979v-0.07484zm2.3451-0.32432q-0.12474 0.07484-0.12474 0.24948h0.27443q0-0.17464-0.14969-0.24948zm-2.1455-0.12474q-0.07484 0-0.07484 0.12474 0 0.09979 0.07484 0.09979 0.09979 0 0.09979-0.09979 0-0.12474-0.09979-0.12474zm-0.09979-0.07484q0.07484 0 0.07484 0.09979t-0.07484 0.09979-0.07484-0.09979 0.07484-0.09979zm3.1434-0.59875q-0.24948 0-0.24948 0.22453 0.0499 0 0.09979 0.024948 0.07484 0 0.09979 0 0.04989 0 0.14969 0 0.09979-0.024948 0.12474-0.12474-0.02495-0.12474-0.22453-0.12474zm-0.099792-0.42412h0.34927q0-0.12474-0.09979-0.19958-0.09979-0.099791-0.14969-0.14969h-0.09979zm1.0977-0.22453q-0.0499 0-0.0499 0.12474 0 0.099791 0.0499 0.099791 0.09979 0 0.09979-0.099791 0-0.12474-0.09979-0.12474zm-0.32432-0.84823q0 0.29937 0.07484 0.47401t0.42411 0.17463q0-0.074844 0-0.19958 0-0.14969-0.04989-0.27443-0.02495-0.14969-0.09979-0.24948-0.0499-0.099791-0.19958-0.099791h-0.04989q-0.02495 0-0.0499 0.049896t-0.0499 0.074844zm-0.44906 0.39917v-0.12474q0-0.17464-0.12474-0.22453l-0.09979 0.12474zm-0.22453-0.92307q-0.07484 0-0.07484 0.12474t0.07484 0.12474 0.07484-0.12474-0.07484-0.12474zm1.447-0.19958q-0.0499-0.024948-0.0499 0.049896 0 0.049896 0.0499 0.049896 0.04989 0 0.04989-0.049896t-0.04989-0.049896z"/>
  </g>
 </g>
</svg>
